<svg id="Слой_1" data-name="Слой 1" xmlns="http://www.w3.org/2000/svg" viewBox="0 0 224.28 94.61"><defs><style>.cls-1,.cls-2{fill:#bcbcbb;}.cls-1{fill-rule:evenodd;}</style></defs><title>webber-gray</title><path class="cls-1" d="M116.88,37.75h7.92a4.73,4.73,0,0,1,4.72,4.72h0a4.73,4.73,0,0,1-4.72,4.72h-7.92Zm0,19h7.92a4.73,4.73,0,0,1,4.72,4.72h0a4.73,4.73,0,0,1-4.72,4.72h-7.92Zm0,19h7.92a4.72,4.72,0,0,1,0,9.44h-7.92ZM199,47.23h7.92a4.72,4.72,0,0,1,0,9.44H199ZM63.18,37.75H50.54L44.22,61.44,37.91,37.75H25.27L19,61.44,12.64,37.75H0L12.64,85.13H25.27l6.32-23.69,6.32,23.69H50.54Zm97.92,9.48V56.7H176.9v9.48H161.1v9.48H176.9v9.48H148.47V37.75H176.9v9.48ZM79,47.23V56.7H94.77v9.48H79v9.48H94.77v9.48H66.34V37.75H94.77v9.48ZM211.59,66.1a14.21,14.21,0,0,0-1.52-28.35H186.37V85.13H199v-19l12.64,19h12.64ZM104.24,28.27h23.69A14.2,14.2,0,0,1,138.51,52a14.15,14.15,0,0,1,0,19,14.2,14.2,0,0,1-10.57,23.69H104.24Z"/><path class="cls-2" d="M21,15.64a3.58,3.58,0,0,1-3-1.38h-.15q.15,1.35.15,1.57V20.2H15V4.65h2.4L17.83,6H18A3.41,3.41,0,0,1,21,4.44a3.51,3.51,0,0,1,3,1.48A6.84,6.84,0,0,1,25.11,10a8.11,8.11,0,0,1-.51,3A4.22,4.22,0,0,1,23.15,15,3.7,3.7,0,0,1,21,15.64ZM20.08,6.8a1.86,1.86,0,0,0-1.59.67A3.85,3.85,0,0,0,18,9.69V10a4.55,4.55,0,0,0,.52,2.49,1.85,1.85,0,0,0,1.64.75q2,0,2-3.27a4.66,4.66,0,0,0-.49-2.39A1.66,1.66,0,0,0,20.08,6.8Z"/><path class="cls-2" d="M34.4,15.45,33.83,14h-.08a4.35,4.35,0,0,1-1.53,1.3,5,5,0,0,1-2.05.36,3.32,3.32,0,0,1-2.45-.89,3.41,3.41,0,0,1-.89-2.53A2.85,2.85,0,0,1,28,9.69a7,7,0,0,1,3.63-.9l1.87-.06V8.25a1.47,1.47,0,0,0-1.68-1.64,7.66,7.66,0,0,0-3,.78l-1-2a8.78,8.78,0,0,1,4.14-1,5.15,5.15,0,0,1,3.33.95,3.5,3.5,0,0,1,1.16,2.88v7.2Zm-.87-5-1.14,0a3.65,3.65,0,0,0-1.91.46,1.46,1.46,0,0,0-.63,1.29q0,1.25,1.43,1.25a2.26,2.26,0,0,0,1.64-.59,2.07,2.07,0,0,0,.61-1.56Z"/><path class="cls-2" d="M42.18,8.8a7.28,7.28,0,0,0,2.37-.27.91.91,0,0,0,.7-.86.84.84,0,0,0-.51-.78A4,4,0,0,0,43,6.63a8.94,8.94,0,0,0-1.69.18,9,9,0,0,0-1.71.5l-.87-2.06A12.28,12.28,0,0,1,41,4.63a14.16,14.16,0,0,1,2.42-.19,6,6,0,0,1,3.24.77,2.38,2.38,0,0,1,1.22,2.1q0,1.83-2.15,2.38v.1a3.82,3.82,0,0,1,1.89.93,2.22,2.22,0,0,1,.57,1.58A2.65,2.65,0,0,1,47.54,14a4.06,4.06,0,0,1-1.85,1.18,8.75,8.75,0,0,1-2.84.42A10.24,10.24,0,0,1,38.7,15V12.54a8.94,8.94,0,0,0,1.82.61,8.76,8.76,0,0,0,1.92.22A5.47,5.47,0,0,0,44.59,13a1,1,0,0,0,.71-.92,1,1,0,0,0-.75-1,6.41,6.41,0,0,0-2.32-.31H41.09v-2Z"/><path class="cls-2" d="M56.41,15.64a3.58,3.58,0,0,1-3-1.38h-.15q.15,1.35.15,1.57V20.2H50.48V4.65h2.4L53.29,6h.14a3.41,3.41,0,0,1,3.06-1.6,3.51,3.51,0,0,1,3,1.48A6.84,6.84,0,0,1,60.56,10a8.11,8.11,0,0,1-.51,3A4.22,4.22,0,0,1,58.61,15,3.7,3.7,0,0,1,56.41,15.64ZM55.54,6.8a1.86,1.86,0,0,0-1.59.67,3.85,3.85,0,0,0-.52,2.22V10a4.55,4.55,0,0,0,.52,2.49,1.85,1.85,0,0,0,1.64.75q2,0,2-3.27a4.66,4.66,0,0,0-.49-2.39A1.66,1.66,0,0,0,55.54,6.8Z"/><path class="cls-2" d="M69.86,15.45,69.29,14h-.08a4.35,4.35,0,0,1-1.53,1.3,5,5,0,0,1-2.05.36,3.32,3.32,0,0,1-2.45-.89,3.41,3.41,0,0,1-.89-2.53,2.85,2.85,0,0,1,1.2-2.54,7,7,0,0,1,3.63-.9L69,8.72V8.25a1.47,1.47,0,0,0-1.68-1.64,7.66,7.66,0,0,0-3,.78l-1-2a8.78,8.78,0,0,1,4.14-1,5.15,5.15,0,0,1,3.33.95,3.5,3.5,0,0,1,1.16,2.88v7.2Zm-.87-5-1.14,0a3.65,3.65,0,0,0-1.91.46,1.46,1.46,0,0,0-.63,1.29q0,1.25,1.43,1.25a2.26,2.26,0,0,0,1.64-.59A2.07,2.07,0,0,0,69,11.33Z"/><path class="cls-2" d="M74.29,9a9.47,9.47,0,0,1,1.42-5.65A6.57,6.57,0,0,1,80.13.89Q81.59.64,84.48.25l.34,2.57q-1.26.15-4.45.62A4.85,4.85,0,0,0,78.55,4a2.32,2.32,0,0,0-.89,1.1A6,6,0,0,0,77.3,7h.15a3.43,3.43,0,0,1,1.35-1.22,4,4,0,0,1,1.81-.42A4,4,0,0,1,83.71,6.6a5,5,0,0,1,1.11,3.5,5.63,5.63,0,0,1-1.41,4.08,5.14,5.14,0,0,1-3.88,1.45,4.62,4.62,0,0,1-3.86-1.77A7.76,7.76,0,0,1,74.29,9Zm5.42,4.28q2.1,0,2.1-2.89T79.91,7.56a2.44,2.44,0,0,0-1,.24,3.78,3.78,0,0,0-.95.63,2.85,2.85,0,0,0-.63.79,5.85,5.85,0,0,0,.63,3A2,2,0,0,0,79.71,13.26Z"/><path class="cls-2" d="M97.07,10a5.8,5.8,0,0,1-1.39,4.13,5,5,0,0,1-3.87,1.49A5.42,5.42,0,0,1,89.06,15a4.53,4.53,0,0,1-1.83-2,6.58,6.58,0,0,1-.64-3A5.77,5.77,0,0,1,88,5.91a5.07,5.07,0,0,1,3.88-1.47,5.45,5.45,0,0,1,2.74.68,4.51,4.51,0,0,1,1.83,1.94A6.52,6.52,0,0,1,97.07,10ZM89.6,10a4.53,4.53,0,0,0,.53,2.42,1.88,1.88,0,0,0,1.71.82,1.85,1.85,0,0,0,1.7-.82A4.6,4.6,0,0,0,94.06,10a4.46,4.46,0,0,0-.52-2.41,2.22,2.22,0,0,0-3.41,0A4.46,4.46,0,0,0,89.6,10Z"/><path class="cls-2" d="M108.44,4.65V6.86h-3.54v8.59H102V6.86H98.41V4.65Z"/><path class="cls-2" d="M117.53,4.65h3.25L116.5,9.83l4.66,5.62h-3.34L113.4,10v5.48h-2.95V4.65h2.95V9.89Z"/><path class="cls-2" d="M129.56,15.45,129,14h-.08a4.35,4.35,0,0,1-1.53,1.3,5,5,0,0,1-2.05.36,3.32,3.32,0,0,1-2.45-.89,3.41,3.41,0,0,1-.89-2.53,2.85,2.85,0,0,1,1.2-2.54,7,7,0,0,1,3.63-.9l1.88-.06V8.25A1.47,1.47,0,0,0,127,6.61a7.66,7.66,0,0,0-3,.78l-1-2a8.78,8.78,0,0,1,4.13-1,5.15,5.15,0,0,1,3.33.95,3.5,3.5,0,0,1,1.16,2.88v7.2Zm-.87-5-1.14,0a3.65,3.65,0,0,0-1.91.46,1.46,1.46,0,0,0-.63,1.29q0,1.25,1.43,1.25a2.26,2.26,0,0,0,1.64-.59,2.07,2.07,0,0,0,.61-1.56Z"/><path class="cls-2" d="M144.18,15.64q-5,0-5-5.54a5.9,5.9,0,0,1,1.37-4.21,5.15,5.15,0,0,1,3.93-1.45,7.5,7.5,0,0,1,3.36.73l-.87,2.28q-.7-.28-1.29-.46a4.17,4.17,0,0,0-1.2-.18q-2.3,0-2.3,3.27t2.3,3.17A5.24,5.24,0,0,0,146,13a5.68,5.68,0,0,0,1.45-.71v2.52a4.74,4.74,0,0,1-1.44.63A8.14,8.14,0,0,1,144.18,15.64Z"/><path class="cls-2" d="M156.83,15.45,156.26,14h-.08a4.35,4.35,0,0,1-1.53,1.3,5,5,0,0,1-2.05.36,3.32,3.32,0,0,1-2.45-.89,3.41,3.41,0,0,1-.89-2.53,2.85,2.85,0,0,1,1.2-2.54,7,7,0,0,1,3.63-.9L156,8.72V8.25a1.47,1.47,0,0,0-1.68-1.64,7.66,7.66,0,0,0-3,.78l-1-2a8.78,8.78,0,0,1,4.13-1,5.15,5.15,0,0,1,3.33.95,3.5,3.5,0,0,1,1.16,2.88v7.2Zm-.87-5-1.14,0a3.65,3.65,0,0,0-1.91.46,1.46,1.46,0,0,0-.63,1.29q0,1.25,1.43,1.25a2.26,2.26,0,0,0,1.64-.59,2.07,2.07,0,0,0,.61-1.56Z"/><path class="cls-2" d="M164.77,4.65V8.92q0,.68-.22,3.3l5-7.57h3.54v10.8h-2.85V11.14q0-1.15.19-3.25l-5,7.56h-3.54V4.65ZM172.21,0a3.44,3.44,0,0,1-1.36,2.63,5.9,5.9,0,0,1-3.4.83,5.82,5.82,0,0,1-3.39-.79A3.39,3.39,0,0,1,162.83,0h2.64a2.06,2.06,0,0,0,.5,1.4,2.27,2.27,0,0,0,1.54.4A2.09,2.09,0,0,0,169,1.36,2.11,2.11,0,0,0,169.54,0Z"/><path class="cls-2" d="M185.1,4.65V6.86h-3.54v8.59h-2.95V6.86h-3.55V4.65Z"/><path class="cls-2" d="M196.93,10a5.81,5.81,0,0,1-1.39,4.13,5,5,0,0,1-3.87,1.49,5.42,5.42,0,0,1-2.74-.68,4.53,4.53,0,0,1-1.83-2,6.58,6.58,0,0,1-.64-3,5.77,5.77,0,0,1,1.38-4.12,5.07,5.07,0,0,1,3.88-1.47,5.45,5.45,0,0,1,2.74.68,4.51,4.51,0,0,1,1.83,1.94A6.5,6.5,0,0,1,196.93,10Zm-7.47,0a4.54,4.54,0,0,0,.53,2.42,1.88,1.88,0,0,0,1.71.82,1.85,1.85,0,0,0,1.7-.82,4.6,4.6,0,0,0,.52-2.43,4.45,4.45,0,0,0-.52-2.41,2.22,2.22,0,0,0-3.41,0A4.46,4.46,0,0,0,189.46,10Z"/><path class="cls-2" d="M209.34,7.48A2.16,2.16,0,0,1,208.79,9a2.64,2.64,0,0,1-1.61.79v.08a3,3,0,0,1,1.82.79,2.15,2.15,0,0,1,.67,1.61,2.71,2.71,0,0,1-1.24,2.4,6.35,6.35,0,0,1-3.54.83h-5.54V4.65h5.54a6.18,6.18,0,0,1,3.33.72A2.36,2.36,0,0,1,209.34,7.48Zm-3,.23q0-1-1.57-1h-2.47V8.86h2.14a3,3,0,0,0,1.42-.27A.93.93,0,0,0,206.35,7.71Zm.27,4.36a1,1,0,0,0-.49-.92,3,3,0,0,0-1.48-.28h-2.34v2.55h2.4a2.42,2.42,0,0,0,1.42-.35A1.15,1.15,0,0,0,206.62,12.07Z"/></svg>